STARTFONT 2.1
FONT ORIC-ATMOS
SIZE 16 150 150
COMMENT x 16 0 -8 ... 16 fixed can't do smaller
FONTBOUNDINGBOX 6 16 0 -4
STARTPROPERTIES 3
PIXEL_SIZE 16
FONT_ASCENT 8
FONT_DESCENT 4
ENDPROPERTIES
CHARS 162
STARTCHAR
ENCODING 32
SWIDTH 200 0
DWIDTH 8 0
BBX 6 8 0 0
BITMAP
00
00
00
00
00
00
00
00
ENDCHAR
STARTCHAR
ENCODING 33
SWIDTH 200 0
DWIDTH 8 0
BBX 6 8 0 0
BITMAP
08
08
08
08
08
00
08
00
ENDCHAR
STARTCHAR
ENCODING 34
SWIDTH 200 0
DWIDTH 8 0
BBX 6 8 0 0
BITMAP
14
14
14
00
00
00
00
00
ENDCHAR
STARTCHAR
ENCODING 35
SWIDTH 200 0
DWIDTH 8 0
BBX 6 8 0 0
BITMAP
14
14
3E
14
3E
14
14
00
ENDCHAR
STARTCHAR
ENCODING 36
SWIDTH 200 0
DWIDTH 8 0
BBX 6 8 0 0
BITMAP
08
1E
28
1C
0A
3C
08
00
ENDCHAR
STARTCHAR
ENCODING 37
SWIDTH 200 0
DWIDTH 8 0
BBX 6 8 0 0
BITMAP
30
32
04
08
10
26
06
00
ENDCHAR
STARTCHAR
ENCODING 38
SWIDTH 200 0
DWIDTH 8 0
BBX 6 8 0 0
BITMAP
10
28
28
10
2A
24
1A
00
ENDCHAR
STARTCHAR
ENCODING 39
SWIDTH 200 0
DWIDTH 8 0
BBX 6 8 0 0
BITMAP
08
08
08
00
00
00
00
00
ENDCHAR
STARTCHAR
ENCODING 40
SWIDTH 200 0
DWIDTH 8 0
BBX 6 8 0 0
BITMAP
08
10
20
20
20
10
08
00
ENDCHAR
STARTCHAR
ENCODING 41
SWIDTH 200 0
DWIDTH 8 0
BBX 6 8 0 0
BITMAP
08
04
02
02
02
04
08
00
ENDCHAR
STARTCHAR
ENCODING 42
SWIDTH 200 0
DWIDTH 8 0
BBX 6 8 0 0
BITMAP
08
2A
1C
08
1C
2A
08
00
ENDCHAR
STARTCHAR
ENCODING 43
SWIDTH 200 0
DWIDTH 8 0
BBX 6 8 0 0
BITMAP
00
08
08
3E
08
08
00
00
ENDCHAR
STARTCHAR
ENCODING 44
SWIDTH 200 0
DWIDTH 8 0
BBX 6 8 0 0
BITMAP
00
00
00
00
00
08
08
10
ENDCHAR
STARTCHAR
ENCODING 45
SWIDTH 200 0
DWIDTH 8 0
BBX 6 8 0 0
BITMAP
00
00
00
3E
00
00
00
00
ENDCHAR
STARTCHAR
ENCODING 46
SWIDTH 200 0
DWIDTH 8 0
BBX 6 8 0 0
BITMAP
00
00
00
00
00
04
00
00
ENDCHAR
STARTCHAR
ENCODING 47
SWIDTH 200 0
DWIDTH 8 0
BBX 6 8 0 0
BITMAP
00
02
04
08
10
20
00
00
ENDCHAR
STARTCHAR
ENCODING 48
SWIDTH 200 0
DWIDTH 8 0
BBX 6 8 0 0
BITMAP
1C
22
26
2A
32
22
1C
00
ENDCHAR
STARTCHAR
ENCODING 49
SWIDTH 200 0
DWIDTH 8 0
BBX 6 8 0 0
BITMAP
08
18
08
08
08
08
1C
00
ENDCHAR
STARTCHAR
ENCODING 50
SWIDTH 200 0
DWIDTH 8 0
BBX 6 8 0 0
BITMAP
1C
22
02
04
08
10
3E
00
ENDCHAR
STARTCHAR
ENCODING 51
SWIDTH 200 0
DWIDTH 8 0
BBX 6 8 0 0
BITMAP
3E
02
04
0C
02
22
1C
00
ENDCHAR
STARTCHAR
ENCODING 52
SWIDTH 200 0
DWIDTH 8 0
BBX 6 8 0 0
BITMAP
04
0C
14
24
3E
04
04
00
ENDCHAR
STARTCHAR
ENCODING 53
SWIDTH 200 0
DWIDTH 8 0
BBX 6 8 0 0
BITMAP
3E
20
3C
02
02
22
1C
00
ENDCHAR
STARTCHAR
ENCODING 54
SWIDTH 200 0
DWIDTH 8 0
BBX 6 8 0 0
BITMAP
0C
10
20
3C
22
22
1C
00
ENDCHAR
STARTCHAR
ENCODING 55
SWIDTH 200 0
DWIDTH 8 0
BBX 6 8 0 0
BITMAP
3E
02
04
08
10
10
10
00
ENDCHAR
STARTCHAR
ENCODING 56
SWIDTH 200 0
DWIDTH 8 0
BBX 6 8 0 0
BITMAP
1C
22
22
1C
22
22
1C
00
ENDCHAR
STARTCHAR
ENCODING 57
SWIDTH 200 0
DWIDTH 8 0
BBX 6 8 0 0
BITMAP
1C
22
22
1E
02
04
18
00
ENDCHAR
STARTCHAR
ENCODING 58
SWIDTH 200 0
DWIDTH 8 0
BBX 6 8 0 0
BITMAP
00
00
08
00
00
08
00
00
ENDCHAR
STARTCHAR
ENCODING 59
SWIDTH 200 0
DWIDTH 8 0
BBX 6 8 0 0
BITMAP
00
00
08
00
00
08
08
10
ENDCHAR
STARTCHAR
ENCODING 60
SWIDTH 200 0
DWIDTH 8 0
BBX 6 8 0 0
BITMAP
04
08
10
20
10
08
04
00
ENDCHAR
STARTCHAR
ENCODING 61
SWIDTH 200 0
DWIDTH 8 0
BBX 6 8 0 0
BITMAP
00
00
3E
00
3E
00
00
00
ENDCHAR
STARTCHAR
ENCODING 62
SWIDTH 200 0
DWIDTH 8 0
BBX 6 8 0 0
BITMAP
10
08
04
02
04
08
10
00
ENDCHAR
STARTCHAR
ENCODING 63
SWIDTH 200 0
DWIDTH 8 0
BBX 6 8 0 0
BITMAP
1C
22
04
08
08
00
08
00
ENDCHAR
STARTCHAR
ENCODING 64
SWIDTH 200 0
DWIDTH 8 0
BBX 6 8 0 0
BITMAP
1C
22
2A
2E
2C
20
1E
00
ENDCHAR
STARTCHAR
ENCODING 65
SWIDTH 200 0
DWIDTH 8 0
BBX 6 8 0 0
BITMAP
08
14
22
22
3E
22
22
00
ENDCHAR
STARTCHAR
ENCODING 66
SWIDTH 200 0
DWIDTH 8 0
BBX 6 8 0 0
BITMAP
3C
22
22
3C
22
22
3C
00
ENDCHAR
STARTCHAR
ENCODING 67
SWIDTH 200 0
DWIDTH 8 0
BBX 6 8 0 0
BITMAP
1C
22
20
20
20
22
1C
00
ENDCHAR
STARTCHAR
ENCODING 68
SWIDTH 200 0
DWIDTH 8 0
BBX 6 8 0 0
BITMAP
3C
22
22
22
22
22
3C
00
ENDCHAR
STARTCHAR
ENCODING 69
SWIDTH 200 0
DWIDTH 8 0
BBX 6 8 0 0
BITMAP
3E
20
20
3C
20
20
3E
00
ENDCHAR
STARTCHAR
ENCODING 70
SWIDTH 200 0
DWIDTH 8 0
BBX 6 8 0 0
BITMAP
3E
20
20
3C
20
20
20
00
ENDCHAR
STARTCHAR
ENCODING 71
SWIDTH 200 0
DWIDTH 8 0
BBX 6 8 0 0
BITMAP
1E
20
20
20
26
22
1E
00
ENDCHAR
STARTCHAR
ENCODING 72
SWIDTH 200 0
DWIDTH 8 0
BBX 6 8 0 0
BITMAP
22
22
22
3E
22
22
22
00
ENDCHAR
STARTCHAR
ENCODING 73
SWIDTH 200 0
DWIDTH 8 0
BBX 6 8 0 0
BITMAP
1C
08
08
08
08
08
1C
00
ENDCHAR
STARTCHAR
ENCODING 74
SWIDTH 200 0
DWIDTH 8 0
BBX 6 8 0 0
BITMAP
02
02
02
02
02
22
1C
00
ENDCHAR
STARTCHAR
ENCODING 75
SWIDTH 200 0
DWIDTH 8 0
BBX 6 8 0 0
BITMAP
22
24
28
30
28
24
22
00
ENDCHAR
STARTCHAR
ENCODING 76
SWIDTH 200 0
DWIDTH 8 0
BBX 6 8 0 0
BITMAP
20
20
20
20
20
20
3E
00
ENDCHAR
STARTCHAR
ENCODING 77
SWIDTH 200 0
DWIDTH 8 0
BBX 6 8 0 0
BITMAP
22
36
2A
2A
22
22
22
00
ENDCHAR
STARTCHAR
ENCODING 78
SWIDTH 200 0
DWIDTH 8 0
BBX 6 8 0 0
BITMAP
22
22
32
2A
26
22
22
00
ENDCHAR
STARTCHAR
ENCODING 79
SWIDTH 200 0
DWIDTH 8 0
BBX 6 8 0 0
BITMAP
1C
22
22
22
22
22
1C
00
ENDCHAR
STARTCHAR
ENCODING 80
SWIDTH 200 0
DWIDTH 8 0
BBX 6 8 0 0
BITMAP
3C
22
22
3C
20
20
20
00
ENDCHAR
STARTCHAR
ENCODING 81
SWIDTH 200 0
DWIDTH 8 0
BBX 6 8 0 0
BITMAP
1C
22
22
22
2A
24
1A
00
ENDCHAR
STARTCHAR
ENCODING 82
SWIDTH 200 0
DWIDTH 8 0
BBX 6 8 0 0
BITMAP
3C
22
22
3C
28
24
22
00
ENDCHAR
STARTCHAR
ENCODING 83
SWIDTH 200 0
DWIDTH 8 0
BBX 6 8 0 0
BITMAP
1C
22
20
1C
02
22
1C
00
ENDCHAR
STARTCHAR
ENCODING 84
SWIDTH 200 0
DWIDTH 8 0
BBX 6 8 0 0
BITMAP
3E
08
08
08
08
08
08
00
ENDCHAR
STARTCHAR
ENCODING 85
SWIDTH 200 0
DWIDTH 8 0
BBX 6 8 0 0
BITMAP
22
22
22
22
22
22
1C
00
ENDCHAR
STARTCHAR
ENCODING 86
SWIDTH 200 0
DWIDTH 8 0
BBX 6 8 0 0
BITMAP
22
22
22
22
22
14
08
00
ENDCHAR
STARTCHAR
ENCODING 87
SWIDTH 200 0
DWIDTH 8 0
BBX 6 8 0 0
BITMAP
22
22
22
2A
2A
36
22
00
ENDCHAR
STARTCHAR
ENCODING 88
SWIDTH 200 0
DWIDTH 8 0
BBX 6 8 0 0
BITMAP
22
22
14
08
14
22
22
00
ENDCHAR
STARTCHAR
ENCODING 89
SWIDTH 200 0
DWIDTH 8 0
BBX 6 8 0 0
BITMAP
22
22
14
08
08
08
08
00
ENDCHAR
STARTCHAR
ENCODING 90
SWIDTH 200 0
DWIDTH 8 0
BBX 6 8 0 0
BITMAP
3E
02
04
08
10
20
3E
00
ENDCHAR
STARTCHAR
ENCODING 91
SWIDTH 200 0
DWIDTH 8 0
BBX 6 8 0 0
BITMAP
1E
10
10
10
10
10
1E
00
ENDCHAR
STARTCHAR
ENCODING 92
SWIDTH 200 0
DWIDTH 8 0
BBX 6 8 0 0
BITMAP
00
20
10
08
04
02
00
00
ENDCHAR
STARTCHAR
ENCODING 93
SWIDTH 200 0
DWIDTH 8 0
BBX 6 8 0 0
BITMAP
3C
04
04
04
04
04
3C
00
ENDCHAR
STARTCHAR
ENCODING 94
SWIDTH 200 0
DWIDTH 8 0
BBX 6 8 0 0
BITMAP
08
14
2A
08
08
08
08
00
ENDCHAR
STARTCHAR
ENCODING 95
SWIDTH 200 0
DWIDTH 8 0
BBX 6 8 0 0
BITMAP
0E
10
10
10
3C
10
3E
00
ENDCHAR
STARTCHAR
ENCODING 96
SWIDTH 200 0
DWIDTH 8 0
BBX 6 8 0 0
BITMAP
0C
12
2D
29
29
2D
12
0C
ENDCHAR
STARTCHAR
ENCODING 97
SWIDTH 200 0
DWIDTH 8 0
BBX 6 8 0 0
BITMAP
00
00
1C
02
1E
22
1E
00
ENDCHAR
STARTCHAR
ENCODING 98
SWIDTH 200 0
DWIDTH 8 0
BBX 6 8 0 0
BITMAP
20
20
3C
22
22
22
3C
00
ENDCHAR
STARTCHAR
ENCODING 99
SWIDTH 200 0
DWIDTH 8 0
BBX 6 8 0 0
BITMAP
00
00
1E
20
20
20
1E
00
ENDCHAR
STARTCHAR
ENCODING 100
SWIDTH 200 0
DWIDTH 8 0
BBX 6 8 0 0
BITMAP
02
02
1E
22
22
22
1E
00
ENDCHAR
STARTCHAR
ENCODING 101
SWIDTH 200 0
DWIDTH 8 0
BBX 6 8 0 0
BITMAP
00
00
1C
22
3E
20
1E
00
ENDCHAR
STARTCHAR
ENCODING 102
SWIDTH 200 0
DWIDTH 8 0
BBX 6 8 0 0
BITMAP
0C
12
10
3C
10
10
10
00
ENDCHAR
STARTCHAR
ENCODING 103
SWIDTH 200 0
DWIDTH 8 0
BBX 6 8 0 0
BITMAP
00
00
1C
22
22
1E
02
1C
ENDCHAR
STARTCHAR
ENCODING 104
SWIDTH 200 0
DWIDTH 8 0
BBX 6 8 0 0
BITMAP
20
20
3C
22
22
22
22
00
ENDCHAR
STARTCHAR
ENCODING 105
SWIDTH 200 0
DWIDTH 8 0
BBX 6 8 0 0
BITMAP
08
00
18
08
08
08
1C
00
ENDCHAR
STARTCHAR
ENCODING 106
SWIDTH 200 0
DWIDTH 8 0
BBX 6 8 0 0
BITMAP
04
00
0C
04
04
04
24
18
ENDCHAR
STARTCHAR
ENCODING 107
SWIDTH 200 0
DWIDTH 8 0
BBX 6 8 0 0
BITMAP
20
20
22
24
38
24
22
00
ENDCHAR
STARTCHAR
ENCODING 108
SWIDTH 200 0
DWIDTH 8 0
BBX 6 8 0 0
BITMAP
18
08
08
08
08
08
1C
00
ENDCHAR
STARTCHAR
ENCODING 109
SWIDTH 200 0
DWIDTH 8 0
BBX 6 8 0 0
BITMAP
00
00
36
2A
2A
2A
22
00
ENDCHAR
STARTCHAR
ENCODING 110
SWIDTH 200 0
DWIDTH 8 0
BBX 6 8 0 0
BITMAP
00
00
3C
22
22
22
22
00
ENDCHAR
STARTCHAR
ENCODING 111
SWIDTH 200 0
DWIDTH 8 0
BBX 6 8 0 0
BITMAP
00
00
1C
22
22
22
1C
00
ENDCHAR
STARTCHAR
ENCODING 112
SWIDTH 200 0
DWIDTH 8 0
BBX 6 8 0 0
BITMAP
00
00
3C
22
22
3C
20
20
ENDCHAR
STARTCHAR
ENCODING 113
SWIDTH 200 0
DWIDTH 8 0
BBX 6 8 0 0
BITMAP
00
00
1E
22
22
1E
02
02
ENDCHAR
STARTCHAR
ENCODING 114
SWIDTH 200 0
DWIDTH 8 0
BBX 6 8 0 0
BITMAP
00
00
2E
30
20
20
20
00
ENDCHAR
STARTCHAR
ENCODING 115
SWIDTH 200 0
DWIDTH 8 0
BBX 6 8 0 0
BITMAP
00
00
1E
20
1C
02
3C
00
ENDCHAR
STARTCHAR
ENCODING 116
SWIDTH 200 0
DWIDTH 8 0
BBX 6 8 0 0
BITMAP
10
10
3C
10
10
12
0C
00
ENDCHAR
STARTCHAR
ENCODING 117
SWIDTH 200 0
DWIDTH 8 0
BBX 6 8 0 0
BITMAP
00
00
22
22
22
26
1A
00
ENDCHAR
STARTCHAR
ENCODING 118
SWIDTH 200 0
DWIDTH 8 0
BBX 6 8 0 0
BITMAP
00
00
22
22
22
14
08
00
ENDCHAR
STARTCHAR
ENCODING 119
SWIDTH 200 0
DWIDTH 8 0
BBX 6 8 0 0
BITMAP
00
00
22
22
2A
2A
36
00
ENDCHAR
STARTCHAR
ENCODING 120
SWIDTH 200 0
DWIDTH 8 0
BBX 6 8 0 0
BITMAP
00
00
22
14
08
14
22
00
ENDCHAR
STARTCHAR
ENCODING 121
SWIDTH 200 0
DWIDTH 8 0
BBX 6 8 0 0
BITMAP
00
00
22
22
22
1E
02
1C
ENDCHAR
STARTCHAR
ENCODING 122
SWIDTH 200 0
DWIDTH 8 0
BBX 6 8 0 0
BITMAP
00
00
3E
04
08
10
3E
00
ENDCHAR
STARTCHAR
ENCODING 123
SWIDTH 200 0
DWIDTH 8 0
BBX 6 8 0 0
BITMAP
0E
18
18
30
18
18
0E
00
ENDCHAR
STARTCHAR
ENCODING 124
SWIDTH 200 0
DWIDTH 8 0
BBX 6 8 0 0
BITMAP
08
08
08
08
08
08
08
08
ENDCHAR
STARTCHAR
ENCODING 125
SWIDTH 200 0
DWIDTH 8 0
BBX 6 8 0 0
BITMAP
38
0C
0C
06
0C
0C
38
00
ENDCHAR
STARTCHAR
ENCODING 126
SWIDTH 200 0
DWIDTH 8 0
BBX 6 8 0 0
BITMAP
2A
15
2A
15
2A
15
2A
15
ENDCHAR
STARTCHAR
ENCODING 127
SWIDTH 200 0
DWIDTH 8 0
BBX 6 8 0 0
BITMAP
3F
3F
3F
3F
3F
3F
3F
3F
ENDCHAR
STARTCHAR
ENCODING 128
SWIDTH 200 0
DWIDTH 8 0
BBX 6 8 0 0
BITMAP
00
00
00
00
00
00
00
00
ENDCHAR
STARTCHAR
ENCODING 160
SWIDTH 200 0
DWIDTH 8 0
BBX 6 8 0 0
BITMAP
00
00
00
00
00
00
00
00
ENDCHAR
STARTCHAR
ENCODING 192
SWIDTH 200 0
DWIDTH 8 0
BBX 6 1 0 0
BITMAP
00
ENDCHAR
STARTCHAR
ENCODING 193
SWIDTH 200 0
DWIDTH 8 0
BBX 6 1 0 0
BITMAP
01
ENDCHAR
STARTCHAR
ENCODING 194
SWIDTH 200 0
DWIDTH 8 0
BBX 6 1 0 0
BITMAP
02
ENDCHAR
STARTCHAR
ENCODING 195
SWIDTH 200 0
DWIDTH 8 0
BBX 6 1 0 0
BITMAP
03
ENDCHAR
STARTCHAR
ENCODING 196
SWIDTH 200 0
DWIDTH 8 0
BBX 6 1 0 0
BITMAP
04
ENDCHAR
STARTCHAR
ENCODING 197
SWIDTH 200 0
DWIDTH 8 0
BBX 6 1 0 0
BITMAP
05
ENDCHAR
STARTCHAR
ENCODING 198
SWIDTH 200 0
DWIDTH 8 0
BBX 6 1 0 0
BITMAP
06
ENDCHAR
STARTCHAR
ENCODING 199
SWIDTH 200 0
DWIDTH 8 0
BBX 6 1 0 0
BITMAP
07
ENDCHAR
STARTCHAR
ENCODING 200
SWIDTH 200 0
DWIDTH 8 0
BBX 6 1 0 0
BITMAP
08
ENDCHAR
STARTCHAR
ENCODING 201
SWIDTH 200 0
DWIDTH 8 0
BBX 6 1 0 0
BITMAP
09
ENDCHAR
STARTCHAR
ENCODING 202
SWIDTH 200 0
DWIDTH 8 0
BBX 6 1 0 0
BITMAP
0A
ENDCHAR
STARTCHAR
ENCODING 203
SWIDTH 200 0
DWIDTH 8 0
BBX 6 1 0 0
BITMAP
0B
ENDCHAR
STARTCHAR
ENCODING 204
SWIDTH 200 0
DWIDTH 8 0
BBX 6 1 0 0
BITMAP
0C
ENDCHAR
STARTCHAR
ENCODING 205
SWIDTH 200 0
DWIDTH 8 0
BBX 6 1 0 0
BITMAP
0D
ENDCHAR
STARTCHAR
ENCODING 206
SWIDTH 200 0
DWIDTH 8 0
BBX 6 1 0 0
BITMAP
0E
ENDCHAR
STARTCHAR
ENCODING 207
SWIDTH 200 0
DWIDTH 8 0
BBX 6 1 0 0
BITMAP
0F
ENDCHAR
STARTCHAR
ENCODING 208
SWIDTH 200 0
DWIDTH 8 0
BBX 6 1 0 0
BITMAP
10
ENDCHAR
STARTCHAR
ENCODING 209
SWIDTH 200 0
DWIDTH 8 0
BBX 6 1 0 0
BITMAP
11
ENDCHAR
STARTCHAR
ENCODING 210
SWIDTH 200 0
DWIDTH 8 0
BBX 6 1 0 0
BITMAP
12
ENDCHAR
STARTCHAR
ENCODING 211
SWIDTH 200 0
DWIDTH 8 0
BBX 6 1 0 0
BITMAP
13
ENDCHAR
STARTCHAR
ENCODING 212
SWIDTH 200 0
DWIDTH 8 0
BBX 6 1 0 0
BITMAP
14
ENDCHAR
STARTCHAR
ENCODING 213
SWIDTH 200 0
DWIDTH 8 0
BBX 6 1 0 0
BITMAP
15
ENDCHAR
STARTCHAR
ENCODING 214
SWIDTH 200 0
DWIDTH 8 0
BBX 6 1 0 0
BITMAP
16
ENDCHAR
STARTCHAR
ENCODING 215
SWIDTH 200 0
DWIDTH 8 0
BBX 6 1 0 0
BITMAP
17
ENDCHAR
STARTCHAR
ENCODING 216
SWIDTH 200 0
DWIDTH 8 0
BBX 6 1 0 0
BITMAP
18
ENDCHAR
STARTCHAR
ENCODING 217
SWIDTH 200 0
DWIDTH 8 0
BBX 6 1 0 0
BITMAP
19
ENDCHAR
STARTCHAR
ENCODING 218
SWIDTH 200 0
DWIDTH 8 0
BBX 6 1 0 0
BITMAP
1A
ENDCHAR
STARTCHAR
ENCODING 219
SWIDTH 200 0
DWIDTH 8 0
BBX 6 1 0 0
BITMAP
1B
ENDCHAR
STARTCHAR
ENCODING 220
SWIDTH 200 0
DWIDTH 8 0
BBX 6 1 0 0
BITMAP
1C
ENDCHAR
STARTCHAR
ENCODING 221
SWIDTH 200 0
DWIDTH 8 0
BBX 6 1 0 0
BITMAP
1D
ENDCHAR
STARTCHAR
ENCODING 222
SWIDTH 200 0
DWIDTH 8 0
BBX 6 1 0 0
BITMAP
1E
ENDCHAR
STARTCHAR
ENCODING 223
SWIDTH 200 0
DWIDTH 8 0
BBX 6 1 0 0
BITMAP
1F
ENDCHAR
STARTCHAR
ENCODING 224
SWIDTH 200 0
DWIDTH 8 0
BBX 6 1 0 0
BITMAP
20
ENDCHAR
STARTCHAR
ENCODING 225
SWIDTH 200 0
DWIDTH 8 0
BBX 6 1 0 0
BITMAP
21
ENDCHAR
STARTCHAR
ENCODING 226
SWIDTH 200 0
DWIDTH 8 0
BBX 6 1 0 0
BITMAP
22
ENDCHAR
STARTCHAR
ENCODING 227
SWIDTH 200 0
DWIDTH 8 0
BBX 6 1 0 0
BITMAP
23
ENDCHAR
STARTCHAR
ENCODING 228
SWIDTH 200 0
DWIDTH 8 0
BBX 6 1 0 0
BITMAP
24
ENDCHAR
STARTCHAR
ENCODING 229
SWIDTH 200 0
DWIDTH 8 0
BBX 6 1 0 0
BITMAP
25
ENDCHAR
STARTCHAR
ENCODING 230
SWIDTH 200 0
DWIDTH 8 0
BBX 6 1 0 0
BITMAP
26
ENDCHAR
STARTCHAR
ENCODING 231
SWIDTH 200 0
DWIDTH 8 0
BBX 6 1 0 0
BITMAP
27
ENDCHAR
STARTCHAR
ENCODING 232
SWIDTH 200 0
DWIDTH 8 0
BBX 6 1 0 0
BITMAP
28
ENDCHAR
STARTCHAR
ENCODING 233
SWIDTH 200 0
DWIDTH 8 0
BBX 6 1 0 0
BITMAP
29
ENDCHAR
STARTCHAR
ENCODING 234
SWIDTH 200 0
DWIDTH 8 0
BBX 6 1 0 0
BITMAP
2A
ENDCHAR
STARTCHAR
ENCODING 235
SWIDTH 200 0
DWIDTH 8 0
BBX 6 1 0 0
BITMAP
2B
ENDCHAR
STARTCHAR
ENCODING 236
SWIDTH 200 0
DWIDTH 8 0
BBX 6 1 0 0
BITMAP
2C
ENDCHAR
STARTCHAR
ENCODING 237
SWIDTH 200 0
DWIDTH 8 0
BBX 6 1 0 0
BITMAP
2D
ENDCHAR
STARTCHAR
ENCODING 238
SWIDTH 200 0
DWIDTH 8 0
BBX 6 1 0 0
BITMAP
2E
ENDCHAR
STARTCHAR
ENCODING 239
SWIDTH 200 0
DWIDTH 8 0
BBX 6 1 0 0
BITMAP
2F
ENDCHAR
STARTCHAR
ENCODING 240
SWIDTH 200 0
DWIDTH 8 0
BBX 6 1 0 0
BITMAP
30
ENDCHAR
STARTCHAR
ENCODING 241
SWIDTH 200 0
DWIDTH 8 0
BBX 6 1 0 0
BITMAP
31
ENDCHAR
STARTCHAR
ENCODING 242
SWIDTH 200 0
DWIDTH 8 0
BBX 6 1 0 0
BITMAP
32
ENDCHAR
STARTCHAR
ENCODING 243
SWIDTH 200 0
DWIDTH 8 0
BBX 6 1 0 0
BITMAP
33
ENDCHAR
STARTCHAR
ENCODING 244
SWIDTH 200 0
DWIDTH 8 0
BBX 6 1 0 0
BITMAP
34
ENDCHAR
STARTCHAR
ENCODING 245
SWIDTH 200 0
DWIDTH 8 0
BBX 6 1 0 0
BITMAP
35
ENDCHAR
STARTCHAR
ENCODING 246
SWIDTH 200 0
DWIDTH 8 0
BBX 6 1 0 0
BITMAP
36
ENDCHAR
STARTCHAR
ENCODING 247
SWIDTH 200 0
DWIDTH 8 0
BBX 6 1 0 0
BITMAP
37
ENDCHAR
STARTCHAR
ENCODING 248
SWIDTH 200 0
DWIDTH 8 0
BBX 6 1 0 0
BITMAP
38
ENDCHAR
STARTCHAR
ENCODING 249
SWIDTH 200 0
DWIDTH 8 0
BBX 6 1 0 0
BITMAP
39
ENDCHAR
STARTCHAR
ENCODING 250
SWIDTH 200 0
DWIDTH 8 0
BBX 6 1 0 0
BITMAP
3A
ENDCHAR
STARTCHAR
ENCODING 251
SWIDTH 200 0
DWIDTH 8 0
BBX 6 1 0 0
BITMAP
3B
ENDCHAR
STARTCHAR
ENCODING 252
SWIDTH 200 0
DWIDTH 8 0
BBX 6 1 0 0
BITMAP
3C
ENDCHAR
STARTCHAR
ENCODING 253
SWIDTH 200 0
DWIDTH 8 0
BBX 6 1 0 0
BITMAP
3D
ENDCHAR
STARTCHAR
ENCODING 254
SWIDTH 200 0
DWIDTH 8 0
BBX 6 1 0 0
BITMAP
3E
ENDCHAR
STARTCHAR
ENCODING 255
SWIDTH 200 0
DWIDTH 8 0
BBX 6 1 0 0
BITMAP
3F
ENDCHAR
ENDFONT
